<svg width="20" height="21" viewBox="0 0 20 21" fill="none" xmlns="http://www.w3.org/2000/svg">
<g clip-path="url(#clip0_1886_1388)">
<path d="M10 20.5C15.5228 20.5 20 16.0228 20 10.5C20 4.97715 15.5228 0.5 10 0.5C4.47715 0.5 0 4.97715 0 10.5C0 16.0228 4.47715 20.5 10 20.5Z" fill="#6DA544"/>
<path d="M10 4.41302L18.2609 10.5L10 16.5869L1.73914 10.5L10 4.41302Z" fill="#FFDA44"/>
<path d="M10 13.9782C11.921 13.9782 13.4782 12.421 13.4782 10.5C13.4782 8.57899 11.921 7.02173 10 7.02173C8.07902 7.02173 6.52176 8.57899 6.52176 10.5C6.52176 12.421 8.07902 13.9782 10 13.9782Z" fill="#F0F0F0"/>
<path d="M8.26087 10.2826C7.65602 10.2826 7.07231 10.3746 6.52286 10.5453C6.54719 12.4453 8.09422 13.9783 10 13.9783C11.1784 13.9783 12.2192 13.3917 12.8484 12.4951C11.772 11.1476 10.1157 10.2826 8.26087 10.2826Z" fill="#0052B4"/>
<path d="M13.4138 11.1664C13.4557 10.9506 13.4783 10.728 13.4783 10.5C13.4783 8.57896 11.921 7.02173 10 7.02173C8.56668 7.02173 7.33621 7.88896 6.80371 9.12716C7.27441 9.02962 7.76176 8.97825 8.26094 8.97825C10.2811 8.97821 12.1087 9.81798 13.4138 11.1664Z" fill="#0052B4"/>
</g>
<defs>
<clipPath id="clip0_1886_1388">
<rect width="20" height="20" fill="white" transform="translate(0 0.5)"/>
</clipPath>
</defs>
</svg>
