<svg width="21" height="21" viewBox="0 0 21 21" fill="none" xmlns="http://www.w3.org/2000/svg">
<g clip-path="url(#clip0_1886_1499)">
<path d="M0.0660095 10.5C0.0660095 11.7232 0.286049 12.8949 0.688002 13.9782L10.066 14.8478L19.444 13.9782C19.846 12.8949 20.066 11.7232 20.066 10.5C20.066 9.27677 19.846 8.10505 19.444 7.02173L10.066 6.15216L0.688002 7.02173C0.286049 8.10505 0.0660095 9.27677 0.0660095 10.5H0.0660095Z" fill="#FFDA44"/>
<path d="M19.444 7.02176C18.0311 3.21379 14.3656 0.5 10.066 0.5C5.76635 0.5 2.10092 3.21379 0.687988 7.02176H19.444Z" fill="#D80027"/>
<path d="M0.687988 13.9783C2.10092 17.7862 5.76635 20.5 10.066 20.5C14.3656 20.5 18.0311 17.7862 19.444 13.9783H0.687988Z" fill="#D80027"/>
</g>
<defs>
<clipPath id="clip0_1886_1499">
<rect width="20" height="20" fill="white" transform="translate(0.0660095 0.5)"/>
</clipPath>
</defs>
</svg>
