<svg width="20" height="21" viewBox="0 0 20 21" fill="none" xmlns="http://www.w3.org/2000/svg">
<g clip-path="url(#clip0_1886_1449)">
<path d="M10 20.5C15.5228 20.5 20 16.0228 20 10.5C20 4.97715 15.5228 0.5 10 0.5C4.47715 0.5 0 4.97715 0 10.5C0 16.0228 4.47715 20.5 10 20.5Z" fill="#F0F0F0"/>
<path d="M20 10.5C20 6.53537 17.6928 3.10975 14.3478 1.49225V19.5077C17.6928 17.8902 20 14.4646 20 10.5Z" fill="#D80027"/>
<path d="M0 10.5C0 14.4646 2.30723 17.8902 5.65219 19.5077V1.49225C2.30723 3.10975 0 6.53537 0 10.5Z" fill="#6DA544"/>
<path d="M7.39129 10.5C7.39129 11.9407 8.55926 13.1087 10 13.1087C11.4407 13.1087 12.6087 11.9407 12.6087 10.5V9.63043H7.39129V10.5Z" fill="#6DA544"/>
<path d="M13.4782 8.76087H10.8695C10.8695 8.28063 10.4802 7.8913 9.99996 7.8913C9.51973 7.8913 9.13039 8.28063 9.13039 8.76087H6.52168C6.52168 9.24114 6.94 9.63044 7.42019 9.63044H7.39125C7.39125 10.1107 7.78055 10.5 8.26082 10.5C8.26082 10.9803 8.65012 11.3696 9.13039 11.3696H10.8695C11.3498 11.3696 11.7391 10.9803 11.7391 10.5C12.2194 10.5 12.6087 10.1107 12.6087 9.63044H12.5797C13.06 9.63044 13.4782 9.24114 13.4782 8.76087Z" fill="#FF9811"/>
</g>
<defs>
<clipPath id="clip0_1886_1449">
<rect width="20" height="20" fill="white" transform="translate(0 0.5)"/>
</clipPath>
</defs>
</svg>
