<svg width="20" height="21" viewBox="0 0 20 21" fill="none" xmlns="http://www.w3.org/2000/svg">
<g clip-path="url(#clip0_1886_1471)">
<path d="M0 10.5C0 14.7996 2.71375 18.4651 6.52168 19.878L7.39129 10.5L6.52168 1.12201C2.71375 2.53498 0 6.20037 0 10.5Z" fill="#6DA544"/>
<path d="M20 10.5C20 4.97719 15.5228 0.5 10 0.5C8.7768 0.5 7.60504 0.720039 6.52168 1.12199V19.878C7.60504 20.28 8.7768 20.5 10 20.5C15.5228 20.5 20 16.0228 20 10.5Z" fill="#D80027"/>
<path d="M6.52176 13.9782C8.44274 13.9782 10 12.421 10 10.5C10 8.57899 8.44274 7.02173 6.52176 7.02173C4.60078 7.02173 3.04352 8.57899 3.04352 10.5C3.04352 12.421 4.60078 13.9782 6.52176 13.9782Z" fill="#FFDA44"/>
<path d="M4.56523 8.76086V10.9348C4.56523 12.0153 5.44117 12.8913 6.52175 12.8913C7.60234 12.8913 8.47828 12.0154 8.47828 10.9348V8.76086H4.56523Z" fill="#D80027"/>
<path d="M6.52176 11.587C6.16215 11.587 5.86957 11.2944 5.86957 10.9348V10.0652H7.1739V10.9348C7.1739 11.2944 6.88133 11.587 6.52176 11.587Z" fill="#F0F0F0"/>
</g>
<defs>
<clipPath id="clip0_1886_1471">
<rect width="20" height="20" fill="white" transform="translate(0 0.5)"/>
</clipPath>
</defs>
</svg>
